# xmcd
#
# Track frame offsets:
#	150
#	11145
#	24758
#	35108
#	48758
#	59881
#	73824
#	83687
#	93122
#	108392
#	120700
#	133555
#
# Disc length: 1960 seconds
#
# Revision: 1
# Processed by: cddbd v1.5.2PL0 Copyright (c) Steve Scherf et al.
# Submitted via: audiograbber 1.83.01
#
DISCID=9d07a60c
DTITLE=Marty Robbins - Hawaii's Calling Me
DYEAR=1963
DGENRE=Country
TTITLE0=Lovely Hula Hands
TTITLE1=The Sea And Me
TTITLE2=Ka-Lu-A
TTITLE3=The Night I Came Ashore
TTITLE4=Echo Island
TTITLE5=Kuu Ipo Lani (My Sweetheart, Lani
TTITLE6=The Hawaiian Wedding Song
TTITLE7=Drowsy Waters (Wailana)
TTITLE8=Hawaiian Bells
TTITLE9=My Wonderful One
TTITLE10=Blue Sand
TTITLE11=Hawaii's Calling Me
EXTD=
EXTT0=
EXTT1=
EXTT2=
EXTT3=
EXTT4=
EXTT5=
EXTT6=
EXTT7=
EXTT8=
EXTT9=
EXTT10=
EXTT11=
PLAYORDER=
